<?xml version="1.0" standalone="no"?>
<!DOCTYPE svg PUBLIC "-//W3C//DTD SVG 20010904//EN"
 "http://www.w3.org/TR/2001/REC-SVG-20010904/DTD/svg10.dtd">
<svg version="1.0" xmlns="http://www.w3.org/2000/svg"
 width="600.000000pt" height="800.000000pt" viewBox="0 0 600.000000 800.000000"
 preserveAspectRatio="xMidYMid meet">
<g transform="translate(0.000000,800.000000) scale(0.100000,-0.100000)"
fill="#000000" stroke="none">
<path d="M3209 7048 c-13 -5 -62 -10 -109 -11 -47 -2 -91 -6 -98 -10 -6 -5
-33 -10 -58 -12 -25 -2 -51 -8 -57 -13 -7 -4 -23 -9 -36 -10 -13 0 -27 -5 -30
-11 -3 -5 -19 -12 -36 -15 -70 -13 -121 -30 -132 -44 -10 -12 -13 -12 -13 -3
0 11 -3 11 -15 1 -8 -7 -15 -20 -15 -29 0 -14 -2 -14 -10 -1 -8 12 -10 12 -10
1 0 -8 -3 -12 -6 -8 -9 8 -84 -33 -84 -47 0 -6 -20 -21 -43 -32 -23 -12 -47
-30 -52 -42 -6 -11 -38 -50 -70 -86 -55 -60 -76 -92 -104 -153 -6 -13 -15 -23
-21 -23 -11 0 -72 -125 -68 -143 1 -7 -3 -28 -9 -47 -6 -19 -12 -42 -12 -50 0
-8 -3 -44 -6 -80 -10 -111 -11 -230 -3 -230 4 0 3 -12 -3 -26 -5 -15 -11 -43
-13 -63 -15 -139 -18 -151 -32 -151 -11 0 -11 -5 -2 -25 6 -14 19 -25 30 -25
10 0 18 -4 18 -10 0 -5 6 -10 14 -10 15 0 30 -27 27 -49 -1 -7 2 -10 8 -6 6 3
11 2 11 -4 0 -5 -4 -12 -9 -16 -13 -7 -1 -76 15 -92 7 -7 16 -22 19 -33 3 -11
9 -20 13 -20 10 0 39 20 29 20 -4 0 2 16 13 37 10 20 17 40 14 44 -3 5 1 6 9
3 8 -3 17 3 21 13 3 10 9 24 12 32 4 9 2 11 -5 7 -23 -15 -11 50 14 74 13 12
23 28 22 34 -1 6 4 10 11 9 6 -2 12 1 12 5 0 5 11 22 25 38 14 16 25 32 25 37
0 4 6 7 13 7 6 1 19 16 28 35 9 19 12 32 8 29 -5 -3 -9 -1 -9 5 0 5 5 13 11
17 6 3 9 15 6 25 -3 10 -1 22 4 25 5 3 9 15 9 27 0 15 3 18 8 9 10 -15 42 -5
42 13 0 7 7 18 15 25 10 9 15 9 15 1 0 -6 5 -11 11 -11 26 0 37 30 41 117 2
50 9 97 15 105 12 14 12 35 1 54 -4 6 4 17 17 24 18 9 23 19 19 32 -3 12 0 18
9 18 9 0 17 4 19 9 2 5 10 11 18 13 8 2 21 11 29 21 19 26 37 7 21 -23 -6 -12
-10 -23 -8 -25 6 -7 48 7 48 15 0 5 9 6 20 3 11 -3 26 -1 33 4 6 6 24 10 40 9
16 -1 27 3 27 11 0 15 39 33 56 26 7 -2 15 1 19 7 4 6 15 8 25 5 10 -3 25 1
33 10 11 10 18 12 23 4 4 -8 9 -7 15 2 7 11 9 10 9 -5 0 -14 3 -16 13 -7 9 7
17 7 23 1 5 -5 34 -11 63 -12 29 -1 55 -6 57 -10 3 -5 15 -6 27 -3 15 4 31 -3
49 -20 31 -29 42 -30 82 -10 26 14 31 14 52 0 13 -9 24 -11 24 -6 0 15 46 19
70 6 17 -9 19 -14 9 -18 -8 -3 -5 -6 9 -6 12 -1 22 -5 22 -11 0 -5 7 -10 15
-10 8 0 15 5 15 11 0 8 4 8 15 -1 8 -6 23 -9 35 -5 22 7 27 -4 8 -23 -9 -9 -1
-12 39 -12 33 0 55 -5 63 -15 10 -12 10 -15 -1 -15 -11 0 -11 -3 1 -11 11 -8
8 -9 -14 -4 -24 5 -27 3 -22 -10 3 -9 6 -18 6 -20 0 -2 9 -1 20 2 11 3 28 2
37 -2 10 -5 22 -7 26 -6 5 1 6 -8 2 -19 -4 -11 -2 -20 4 -20 6 0 11 -13 11
-30 0 -21 5 -30 16 -30 11 0 14 6 9 21 -9 29 16 21 30 -9 5 -12 18 -22 28 -22
10 0 15 -4 12 -10 -3 -5 3 -10 14 -10 14 0 19 5 15 15 -4 8 -1 15 5 15 6 0 11
-4 11 -10 0 -5 7 -6 17 -3 11 4 14 3 9 -5 -5 -8 0 -12 13 -12 24 0 44 -31 35
-54 -3 -9 -2 -16 3 -16 5 0 7 -16 5 -35 -2 -19 -8 -35 -13 -35 -5 0 -9 -11 -9
-24 0 -35 -15 -40 -30 -11 -7 14 -17 25 -22 25 -4 0 -8 9 -8 20 0 11 -4 20
-10 20 -5 0 -10 -5 -10 -11 0 -6 -7 -9 -15 -5 -8 3 -15 1 -15 -5 0 -5 7 -12
15 -15 8 -4 15 -13 15 -21 0 -8 5 -11 10 -8 6 3 10 -1 10 -9 0 -9 6 -16 13
-16 13 0 18 -73 5 -85 -3 -4 -4 -22 -1 -41 5 -33 -9 -48 -21 -21 -3 6 -3 0 0
-15 5 -21 2 -28 -10 -28 -10 0 -16 -9 -16 -22 0 -19 -2 -20 -11 -8 -8 11 -9 6
-7 -23 3 -30 1 -37 -11 -34 -9 2 -15 9 -13 17 2 10 0 11 -11 2 -8 -7 -17 -9
-20 -5 -4 3 -7 1 -7 -5 0 -5 6 -13 13 -15 7 -3 5 -6 -5 -6 -11 -1 -15 -6 -12
-16 4 -8 2 -15 -4 -15 -6 0 -12 4 -14 9 -1 5 -17 6 -35 4 -29 -5 -31 -7 -17
-20 20 -21 9 -30 -13 -11 -10 9 -29 19 -43 22 -19 6 -21 5 -10 -3 12 -8 5 -11
-26 -11 -51 0 -120 -37 -139 -73 -19 -38 -2 -47 65 -33 88 18 250 3 250 -23 0
-5 9 -11 21 -14 13 -3 18 -10 14 -17 -4 -6 4 -24 18 -38 21 -23 45 -92 32 -92
-2 0 -18 9 -36 19 -20 12 -26 21 -17 24 7 3 4 6 -8 6 -12 1 -27 8 -34 17 -21
24 -78 44 -170 57 -85 13 -133 9 -175 -14 -11 -7 -17 -8 -13 -4 10 11 -17 35
-40 35 -22 0 -71 -52 -74 -78 0 -9 -2 -21 -3 -27 -2 -5 -3 -18 -4 -29 -1 -14
-4 -16 -15 -7 -16 14 -46 4 -46 -15 0 -8 -8 -14 -17 -14 -13 0 -14 -3 -6 -8 7
-4 14 -33 17 -65 3 -41 12 -66 32 -92 25 -33 25 -35 6 -35 -20 0 -21 -1 -4
-30 9 -16 20 -30 24 -30 4 0 5 -7 2 -15 -4 -8 -1 -15 4 -15 18 0 25 20 12 35
-7 9 -8 15 0 20 5 3 12 0 14 -7 12 -38 16 -39 11 -3 -3 28 -2 34 4 20 5 -11 7
-52 5 -92 -3 -43 0 -74 6 -78 5 -3 10 0 10 8 0 7 16 18 35 24 34 11 35 10 37
-15 2 -45 -2 -66 -15 -74 -9 -6 -9 -8 0 -8 7 0 18 9 25 19 9 15 16 17 25 9 9
-7 17 -5 28 6 9 9 13 16 8 16 -5 0 -13 -4 -19 -10 -17 -17 -42 22 -32 51 9 23
10 23 24 5 8 -11 14 -23 14 -28 0 -4 5 -8 12 -8 7 0 32 -19 57 -42 36 -35 40
-37 18 -10 -15 19 -27 42 -27 52 0 10 -4 22 -10 25 -5 3 -26 30 -45 60 -20 30
-45 57 -56 60 -11 4 -17 11 -14 16 4 5 0 9 -7 9 -20 0 -16 49 4 56 10 3 22 3
27 -1 5 -3 12 -1 15 3 3 5 -10 23 -29 39 -27 24 -31 32 -19 37 12 5 13 10 4
26 -11 20 -9 21 28 15 30 -4 39 -2 39 9 0 9 -13 20 -29 25 -18 6 -26 7 -23 1
11 -18 -4 -10 -25 12 -19 21 -20 23 -3 30 10 3 30 7 46 7 44 1 31 21 -15 22
-24 1 -33 4 -20 6 12 2 22 8 22 12 0 4 11 13 24 19 22 10 26 8 31 -9 4 -11 17
-31 29 -44 20 -21 34 -25 90 -27 55 -3 66 -6 66 -20 0 -11 8 -18 19 -18 14 0
18 -5 14 -20 -6 -23 -31 -33 -67 -26 -18 3 -26 0 -26 -10 0 -9 11 -14 36 -14
21 0 33 -4 29 -10 -7 -12 54 -13 73 -2 23 15 73 0 108 -33 19 -18 34 -30 34
-26 0 3 5 -2 11 -12 8 -13 7 -22 -1 -33 -16 -18 -34 -18 -27 0 3 8 3 17 -1 20
-3 4 -14 -19 -23 -51 -17 -53 -17 -57 -1 -69 9 -8 20 -14 25 -14 4 0 7 -6 7
-13 0 -8 8 -21 18 -29 21 -18 62 -30 62 -17 0 5 -9 9 -20 9 -14 0 -18 5 -13
18 4 9 10 19 15 23 12 8 16 89 5 89 -6 0 -8 2 -5 5 3 3 18 1 33 -5 l28 -11 -6
46 c-4 29 -3 44 3 40 6 -3 10 -2 10 4 0 5 3 16 6 25 4 10 1 16 -9 16 -8 0 -18
12 -22 27 -3 15 -12 31 -18 35 -9 6 -8 11 3 18 22 14 30 12 24 -5 -9 -22 7
-18 41 10 16 13 26 28 22 32 -5 4 -12 1 -17 -7 -7 -10 -10 -11 -10 -2 0 7 -15
12 -37 13 -34 0 -35 1 -15 10 13 5 21 13 18 18 -3 5 5 16 19 25 23 15 25 15
25 -1 0 -10 5 -25 11 -33 7 -11 9 -7 8 20 -1 19 -1 46 0 60 2 23 3 23 10 5 5
-11 12 -44 16 -72 4 -29 11 -53 16 -53 5 0 9 5 9 12 0 21 13 -2 16 -28 2 -21
0 -23 -12 -13 -11 9 -14 8 -14 -4 0 -8 -13 -57 -30 -107 -35 -107 -34 -101
-15 -94 17 7 19 -4 6 -25 -5 -7 -14 -10 -20 -7 -7 5 -11 -1 -11 -14 0 -11 -9
-53 -20 -92 -11 -40 -20 -84 -20 -98 l1 -25 14 25 c8 14 14 38 15 54 0 24 3
27 21 23 17 -5 20 -2 16 13 -3 12 0 17 8 14 7 -3 16 0 20 6 3 6 1 9 -6 8 -8
-2 -14 7 -15 20 -1 20 7 27 29 23 21 -4 60 60 51 83 -3 9 -1 16 6 16 6 0 9 4
6 9 -9 13 4 42 15 35 6 -3 7 5 3 20 -4 19 -2 28 10 32 9 3 16 11 16 16 0 6 7
24 15 41 15 34 36 143 36 189 0 15 4 30 8 32 15 9 2 69 -20 92 -16 18 -19 26
-10 41 8 14 11 14 11 3 0 -11 3 -10 11 4 6 10 13 55 14 100 1 44 8 140 15 211
6 72 9 168 6 215 -4 47 -7 92 -7 100 -1 8 -5 29 -9 45 -5 17 -11 50 -14 74 -3
24 -10 49 -16 56 -5 6 -12 29 -16 51 -3 21 -12 49 -20 61 -8 12 -14 29 -14 36
0 8 -11 27 -25 43 -14 16 -25 33 -25 38 0 5 -8 18 -17 29 -10 11 -12 17 -5 13
11 -7 12 -4 3 13 -7 11 -15 21 -20 21 -4 0 -22 20 -40 45 -18 25 -36 43 -41
40 -4 -3 -15 7 -24 21 -10 13 -28 30 -41 36 -14 6 -27 20 -31 30 -3 11 -8 17
-11 14 -4 -3 -12 -1 -20 5 -7 6 -13 8 -13 4 0 -4 -8 -1 -17 6 -10 8 -14 9 -10
2 5 -8 -1 -11 -20 -9 -16 1 -27 8 -25 14 1 7 -4 12 -11 12 -7 0 -26 14 -42 30
-19 20 -35 28 -47 24 -11 -3 -18 0 -18 8 -1 7 -24 24 -53 37 -29 13 -60 27
-69 32 -9 4 -26 6 -37 4 -11 -2 -26 2 -33 9 -19 18 -69 50 -83 52 -7 1 -37 9
-66 18 -30 8 -63 15 -74 16 -11 0 -52 1 -92 3 -39 2 -81 -1 -94 -5z m808 -295
c-4 -3 -7 0 -7 7 0 7 3 10 7 7 3 -4 3 -10 0 -14z m-860 -340 c-4 -3 -10 -3
-14 0 -3 4 0 7 7 7 7 0 10 -3 7 -7z m461 -65 c-2 -5 -8 -9 -13 -9 -5 0 -11 4
-13 9 -1 5 4 9 13 9 9 0 14 -4 13 -9z m-968 -48 c0 -5 -4 -10 -10 -10 -5 0
-10 5 -10 10 0 6 5 10 10 10 6 0 10 -4 10 -10z m1707 -37 c-4 -3 -7 0 -7 7 0
7 3 10 7 7 3 -4 3 -10 0 -14z m-380 -150 c-4 -3 -10 -3 -14 0 -3 4 0 7 7 7 7
0 10 -3 7 -7z m-1450 -120 c-4 -3 -7 0 -7 7 0 7 3 10 7 7 3 -4 3 -10 0 -14z
m1520 -165 c-3 -8 -6 -5 -6 6 -1 11 2 17 5 13 3 -3 4 -12 1 -19z m-23 -169
c-3 -5 -10 -7 -15 -3 -5 3 -7 10 -3 15 3 5 10 7 15 3 5 -3 7 -10 3 -15z m298
-329 c-2 -22 -8 -40 -14 -40 -5 0 -7 -3 -4 -8 2 -4 -4 -41 -14 -82 l-19 -75 0
68 c-1 37 3 67 7 67 4 0 9 19 11 42 2 39 15 68 30 68 4 0 5 -18 3 -40z m-673
26 c-12 -10 -60 -16 -54 -6 3 5 18 10 32 10 15 0 24 -2 22 -4z m28 -3 c-4 -3
-10 -3 -14 0 -3 4 0 7 7 7 7 0 10 -3 7 -7z m90 -10 c-4 -3 -7 0 -7 7 0 7 3 10
7 7 3 -4 3 -10 0 -14z m-207 -18 c-33 -19 -49 -19 -24 0 10 8 26 14 34 14 9 0
4 -6 -10 -14z m100 -20 c0 -8 -7 -15 -15 -15 -16 0 -20 12 -8 23 11 12 23 8
23 -8z m617 -2 c-4 -3 -7 0 -7 7 0 7 3 10 7 7 3 -4 3 -10 0 -14z m-779 -13
c-7 -11 -16 -20 -21 -20 -4 0 -3 9 3 20 6 11 15 20 20 20 6 0 5 -9 -2 -20z
m225 5 c1 -5 -6 -11 -15 -13 -11 -2 -18 3 -18 13 0 17 30 18 33 0z m77 -7 l20
-22 -22 -13 c-13 -7 -31 -12 -40 -13 -20 0 -24 15 -8 25 6 3 10 15 10 26 0 25
14 24 40 -3z m251 -69 c26 -26 28 -32 15 -45 -19 -18 -26 -18 -26 1 0 8 -4 15
-10 15 -5 0 -7 -7 -4 -15 5 -11 -1 -15 -19 -15 -25 0 -49 19 -28 21 21 3 26 5
46 16 20 12 19 12 -2 13 -22 0 -31 19 -16 33 10 10 11 9 44 -24z m-551 -80 c0
-5 -7 -9 -15 -9 -15 0 -20 12 -9 23 8 8 24 -1 24 -14z m750 -29 c0 -12 -6 -33
-14 -48 -7 -15 -17 -45 -21 -67 -4 -22 -9 -35 -12 -28 -2 6 3 37 11 69 8 32
13 61 10 66 -6 10 4 28 17 28 5 0 9 -9 9 -20z m-183 -77 c-4 -3 -10 -3 -14 0
-3 4 0 7 7 7 7 0 10 -3 7 -7z m10 -20 c-4 -3 -10 -3 -14 0 -3 4 0 7 7 7 7 0
10 -3 7 -7z m180 -70 c-4 -3 -10 -3 -14 0 -3 4 0 7 7 7 7 0 10 -3 7 -7z m-677
-37 c0 -3 -4 -8 -10 -11 -5 -3 -10 -1 -10 4 0 6 5 11 10 11 6 0 10 -2 10 -4z
m50 -73 c-1 -11 -40 37 -40 49 0 6 9 -1 20 -15 11 -14 20 -29 20 -34z"/>
<path d="M2683 6313 c4 -3 10 -3 14 0 3 4 0 7 -7 7 -7 0 -10 -3 -7 -7z"/>
<path d="M2726 6305 c-3 -8 -1 -15 4 -15 6 0 10 7 10 15 0 8 -2 15 -4 15 -2 0
-6 -7 -10 -15z"/>
<path d="M3790 6180 c0 -5 5 -10 10 -10 6 0 10 5 10 10 0 6 -4 10 -10 10 -5 0
-10 -4 -10 -10z"/>
<path d="M2655 6100 c-3 -5 -1 -10 4 -10 6 0 11 5 11 10 0 6 -2 10 -4 10 -3 0
-8 -4 -11 -10z"/>
<path d="M2623 6073 c4 -3 10 -3 14 0 3 4 0 7 -7 7 -7 0 -10 -3 -7 -7z"/>
<path d="M3890 6050 c0 -5 5 -10 10 -10 6 0 10 5 10 10 0 6 -4 10 -10 10 -5 0
-10 -4 -10 -10z"/>
<path d="M3920 6050 c0 -7 3 -10 7 -7 3 4 3 10 0 14 -4 3 -7 0 -7 -7z"/>
<path d="M4000 6009 c0 -5 5 -7 10 -4 6 3 10 8 10 11 0 2 -4 4 -10 4 -5 0 -10
-5 -10 -11z"/>
<path d="M3910 5988 c0 -7 7 -21 15 -32 13 -17 14 -16 11 10 -3 28 -26 48 -26
22z"/>
<path d="M2610 5970 c0 -7 3 -10 7 -7 3 4 3 10 0 14 -4 3 -7 0 -7 -7z"/>
<path d="M2510 5900 c0 -7 3 -10 7 -7 3 4 3 10 0 14 -4 3 -7 0 -7 -7z"/>
<path d="M2471 5744 c0 -11 3 -14 6 -6 3 7 2 16 -1 19 -3 4 -6 -2 -5 -13z"/>
<path d="M2670 5720 c0 -7 3 -10 7 -7 3 4 3 10 0 14 -4 3 -7 0 -7 -7z"/>
<path d="M1976 5681 c-5 -8 -15 -75 -21 -141 -3 -30 -7 -62 -10 -71 -3 -9 4
-45 16 -80 11 -35 26 -93 33 -128 6 -36 16 -66 23 -68 7 -3 4 22 -9 69 -15 54
-21 107 -22 206 l-1 134 28 24 c16 13 33 22 38 19 5 -4 9 0 9 7 0 14 -77 41
-84 29z"/>
<path d="M2373 5683 c4 -3 10 -3 14 0 3 4 0 7 -7 7 -7 0 -10 -3 -7 -7z"/>
<path d="M2647 5683 c-15 -2 -27 -10 -26 -16 3 -23 -3 -52 -8 -40 -3 10 -8 9
-20 -2 -8 -8 -19 -12 -25 -9 -14 9 -29 -17 -22 -40 5 -16 2 -18 -15 -13 -20 5
-22 2 -16 -22 6 -26 4 -28 -19 -24 -22 5 -26 2 -26 -18 0 -19 -2 -21 -10 -9
-5 8 -10 11 -10 5 0 -19 18 -38 29 -31 7 5 9 1 5 -8 -3 -9 -10 -13 -15 -10 -5
3 -9 1 -9 -4 0 -10 23 -22 41 -22 5 0 8 6 6 12 -1 7 8 14 21 16 14 2 21 -1 20
-9 -6 -23 19 -19 30 6 6 14 19 25 29 25 13 0 14 3 5 12 -19 19 -14 27 23 34
19 3 35 11 35 16 0 6 -7 7 -16 4 -9 -3 -24 -6 -35 -6 -13 0 -25 -11 -33 -31
l-13 -31 -5 25 c-3 16 0 28 8 31 8 3 14 12 14 20 0 8 9 18 21 21 24 8 42 47
25 57 -7 5 -3 8 9 8 17 0 17 2 5 10 -13 9 -13 10 0 10 13 0 13 1 0 10 -13 8
-13 10 2 10 9 0 20 5 23 10 3 6 5 9 3 9 -2 -1 -16 -4 -31 -6z m-72 -83 c3 -5
-1 -10 -10 -10 -9 0 -13 5 -10 10 3 6 8 10 10 10 2 0 7 -4 10 -10z m-55 -131
c0 -18 -18 -9 -23 12 -4 16 -3 18 9 8 8 -6 14 -15 14 -20z"/>
<path d="M2400 5660 c0 -7 3 -10 7 -7 3 4 3 10 0 14 -4 3 -7 0 -7 -7z"/>
<path d="M2807 5640 c-36 -12 -44 -19 -30 -22 10 -3 27 -9 37 -14 14 -5 17 -4
12 4 -5 8 -2 10 8 6 9 -3 13 -11 9 -17 -4 -6 -1 -7 7 -2 7 4 15 4 19 -1 9 -13
79 -44 99 -44 10 0 23 -5 30 -12 10 -10 11 -5 6 22 -4 26 -3 31 5 20 5 -8 13
-12 16 -8 13 12 -38 47 -86 58 -27 7 -52 16 -55 21 -7 12 -19 10 -77 -11z"/>
<path d="M2310 5620 c0 -7 3 -10 7 -7 3 4 3 10 0 14 -4 3 -7 0 -7 -7z"/>
<path d="M3860 5610 c0 -7 3 -10 7 -7 3 4 3 10 0 14 -4 3 -7 0 -7 -7z"/>
<path d="M2520 5590 c0 -7 3 -10 7 -7 3 4 3 10 0 14 -4 3 -7 0 -7 -7z"/>
<path d="M2740 5589 c0 -5 5 -7 10 -4 6 3 10 8 10 11 0 2 -4 4 -10 4 -5 0 -10
-5 -10 -11z"/>
<path d="M2130 5580 c0 -7 3 -10 7 -7 3 4 3 10 0 14 -4 3 -7 0 -7 -7z"/>
<path d="M2833 5573 c4 -3 10 -3 14 0 3 4 0 7 -7 7 -7 0 -10 -3 -7 -7z"/>
<path d="M2665 5560 c-3 -5 -1 -10 4 -10 6 0 11 5 11 10 0 6 -2 10 -4 10 -3 0
-8 -4 -11 -10z"/>
<path d="M2610 5550 c0 -5 5 -10 11 -10 5 0 7 5 4 10 -3 6 -8 10 -11 10 -2 0
-4 -4 -4 -10z"/>
<path d="M2310 5520 c0 -7 3 -10 7 -7 3 4 3 10 0 14 -4 3 -7 0 -7 -7z"/>
<path d="M2288 5478 c9 -9 15 -9 24 0 9 9 7 12 -12 12 -19 0 -21 -3 -12 -12z"/>
<path d="M2420 5470 c0 -7 3 -10 7 -7 3 4 3 10 0 14 -4 3 -7 0 -7 -7z"/>
<path d="M2740 5456 c-39 -11 -122 -51 -194 -93 -20 -12 -20 -13 -1 -13 17 0
16 -3 -10 -25 -16 -13 -36 -24 -42 -25 -7 0 -13 -4 -13 -8 0 -10 95 -8 153 3
30 6 37 4 37 -8 0 -11 -13 -18 -37 -22 -62 -11 -73 -16 -73 -31 0 -10 6 -13
18 -10 19 6 108 10 127 6 28 -6 32 2 11 25 -13 14 -26 37 -28 50 -5 22 -2 25
24 25 16 0 31 6 34 15 4 10 13 13 24 10 35 -11 66 -16 140 -22 47 -3 82 -12
93 -21 12 -10 32 -15 55 -13 37 3 71 21 40 21 -18 0 -33 33 -24 49 9 14 -15
61 -28 54 -6 -3 -8 -3 -4 2 29 31 -216 57 -302 31z m120 -56 c0 -19 -11 -26
-23 -14 -8 8 3 34 14 34 5 0 9 -9 9 -20z m-66 -6 c9 -25 7 -32 -9 -30 -22 3
-38 22 -31 35 10 16 33 13 40 -5z m134 -1 c-2 -10 -10 -18 -18 -18 -8 0 -16 8
-18 18 -2 12 3 17 18 17 15 0 20 -5 18 -17z m84 -25 c23 -23 36 -37 28 -31 -8
6 -28 11 -45 11 -65 0 -64 -1 -52 32 6 17 15 30 18 30 4 0 27 -19 51 -42z
m-165 -15 c-4 -3 -10 -3 -14 0 -3 4 0 7 7 7 7 0 10 -3 7 -7z"/>
<path d="M3053 5449 c2 -8 9 -13 15 -12 6 2 9 -4 6 -12 -4 -9 0 -15 9 -15 10
0 14 -8 13 -25 -2 -13 1 -22 6 -19 5 3 7 13 6 22 -2 9 3 16 10 15 35 -8 -7 40
-47 52 -17 5 -22 4 -18 -6z"/>
<path d="M2270 5376 c0 -51 7 -60 34 -41 18 13 18 15 -4 49 -12 20 -24 36 -26
36 -2 0 -4 -20 -4 -44z"/>
<path d="M2186 5385 c-8 -23 -8 -35 3 -35 13 0 23 32 13 42 -6 6 -12 3 -16 -7z"/>
<path d="M3900 5370 c0 -7 3 -10 7 -7 3 4 3 10 0 14 -4 3 -7 0 -7 -7z"/>
<path d="M3928 5323 c7 -3 16 -2 19 1 4 3 -2 6 -13 5 -11 0 -14 -3 -6 -6z"/>
<path d="M2984 5298 c-4 -7 -3 -8 4 -4 12 7 16 16 8 16 -3 0 -8 -5 -12 -12z"/>
<path d="M3107 5284 c-11 -14 -16 -28 -13 -31 3 -4 6 0 6 7 0 9 5 7 14 -6 14
-18 15 -18 21 9 10 39 -6 51 -28 21z"/>
<path d="M2290 5255 c0 -14 4 -25 9 -25 5 0 16 -3 25 -6 9 -3 16 -2 16 4 0 5
-10 12 -21 15 -15 4 -20 11 -16 21 4 9 2 16 -3 16 -6 0 -10 -11 -10 -25z"/>
<path d="M2453 5273 c4 -3 10 -3 14 0 3 4 0 7 -7 7 -7 0 -10 -3 -7 -7z"/>
<path d="M2995 5260 c-13 -6 -15 -9 -5 -9 8 0 22 4 30 9 18 12 2 12 -25 0z"/>
<path d="M4370 5260 c0 -7 3 -10 7 -7 3 4 3 10 0 14 -4 3 -7 0 -7 -7z"/>
<path d="M2743 5253 c4 -3 10 -3 14 0 3 4 0 7 -7 7 -7 0 -10 -3 -7 -7z"/>
<path d="M3600 5256 c0 -2 7 -7 16 -10 8 -3 12 -2 9 4 -6 10 -25 14 -25 6z"/>
<path d="M3048 5243 c7 -3 16 -2 19 1 4 3 -2 6 -13 5 -11 0 -14 -3 -6 -6z"/>
<path d="M2104 5203 c2 -16 5 -32 5 -36 1 -4 13 -6 29 -5 26 3 27 1 24 -34 -3
-30 0 -38 13 -38 13 0 16 6 11 23 -3 12 -6 30 -6 39 0 9 -9 20 -21 23 -11 4
-24 18 -29 31 -13 33 -32 31 -26 -3z"/>
<path d="M3133 5198 c23 -31 43 -38 33 -12 -4 9 -1 22 5 30 8 10 3 12 -24 11
l-34 -2 20 -27z"/>
<path d="M2301 5139 c-14 -40 -14 -39 7 -39 25 0 42 19 42 47 0 36 -36 30 -49
-8z"/>
<path d="M3003 5153 c4 -3 10 -3 14 0 3 4 0 7 -7 7 -7 0 -10 -3 -7 -7z"/>
<path d="M3618 5153 c7 -3 16 -2 19 1 4 3 -2 6 -13 5 -11 0 -14 -3 -6 -6z"/>
<path d="M3665 5150 c-3 -5 9 -13 25 -19 24 -8 30 -7 30 3 0 15 -48 28 -55 16z"/>
<path d="M2260 5120 c0 -7 3 -10 7 -7 3 4 3 10 0 14 -4 3 -7 0 -7 -7z"/>
<path d="M4124 5118 c-4 -7 -3 -8 4 -4 7 4 12 9 12 12 0 8 -9 4 -16 -8z"/>
<path d="M3644 5071 c10 -10 25 -18 34 -16 9 2 19 4 22 4 8 2 -52 31 -63 31
-5 0 -2 -9 7 -19z"/>
<path d="M3948 5015 c2 -19 6 -35 8 -35 2 0 4 16 4 35 0 19 -4 35 -8 35 -4 0
-6 -16 -4 -35z"/>
<path d="M2100 5010 c0 -7 3 -10 7 -7 3 4 3 10 0 14 -4 3 -7 0 -7 -7z"/>
<path d="M2361 5004 c0 -11 3 -14 6 -6 3 7 2 16 -1 19 -3 4 -6 -2 -5 -13z"/>
<path d="M2120 4980 c0 -5 5 -10 10 -10 6 0 10 5 10 10 0 6 -4 10 -10 10 -5 0
-10 -4 -10 -10z"/>
<path d="M2147 4972 c-19 -20 -23 -42 -7 -42 12 0 32 38 28 51 -2 6 -11 2 -21
-9z"/>
<path d="M2884 4978 c-4 -7 -3 -8 4 -4 7 4 12 9 12 12 0 8 -9 4 -16 -8z"/>
<path d="M3870 4983 c0 -5 16 -18 35 -31 29 -18 35 -19 35 -7 0 9 -4 13 -10
10 -5 -3 -10 2 -10 12 0 15 -2 16 -10 3 -8 -13 -10 -12 -10 3 0 9 -7 17 -15
17 -8 0 -15 -3 -15 -7z"/>
<path d="M2240 4961 c0 -5 5 -13 10 -16 6 -3 10 -2 10 4 0 5 -4 13 -10 16 -5
3 -10 2 -10 -4z"/>
<path d="M3405 4900 c3 -5 8 -10 11 -10 2 0 4 5 4 10 0 6 -5 10 -11 10 -5 0
-7 -4 -4 -10z"/>
<path d="M2719 4842 c-30 -26 -79 -63 -107 -82 -47 -32 -87 -90 -61 -90 5 0 9
4 9 9 0 9 169 165 210 193 14 9 21 17 15 17 -5 1 -35 -21 -66 -47z"/>
<path d="M3014 4803 c11 -11 48 -14 41 -3 -3 5 -16 10 -27 10 -12 0 -18 -3
-14 -7z"/>
<path d="M3566 4759 c5 -8 -5 -10 -32 -7 -43 5 -113 -10 -159 -35 -28 -14 -28
-16 -10 -23 11 -4 24 -13 28 -21 11 -18 51 -17 44 1 -4 9 0 13 11 11 9 -1 16
-8 15 -13 -2 -7 4 -9 14 -5 13 5 15 2 9 -22 -6 -24 -5 -27 7 -16 12 10 17 6
25 -19 6 -17 9 -37 6 -45 -4 -9 4 -19 22 -27 22 -10 28 -10 32 0 2 6 7 12 12
12 4 0 3 -12 -3 -26 -11 -24 -15 -25 -62 -19 -75 10 -106 7 -125 -10 -9 -8
-31 -15 -48 -15 -20 0 -32 -5 -32 -14 0 -9 19 -16 60 -20 46 -5 58 -10 53 -21
-3 -8 -11 -15 -19 -15 -8 0 -14 -4 -14 -10 0 -5 11 -10 24 -10 13 0 26 -6 29
-12 4 -13 -48 -68 -64 -68 -4 0 -13 -10 -20 -22 -6 -13 -21 -31 -33 -40 -21
-17 -20 -18 27 -18 26 0 47 5 47 11 0 5 5 7 10 4 15 -9 7 -17 -37 -40 -21 -11
-41 -24 -45 -30 -5 -6 -11 -5 -17 3 -6 11 -10 9 -14 -7 -5 -20 9 -28 38 -21 6
2 17 3 25 4 9 1 20 5 27 9 6 4 18 4 27 1 11 -4 19 2 26 22 8 20 14 24 22 16 8
-8 16 -7 29 1 14 9 15 15 7 30 -9 17 -8 19 12 14 16 -4 20 -2 16 8 -6 17 18
68 27 58 4 -3 7 -1 7 5 0 16 -11 15 -38 -4 -13 -9 -22 -11 -22 -4 0 6 6 13 14
16 8 3 18 19 21 36 5 23 9 27 16 17 12 -19 11 -32 -1 -24 -5 3 -10 1 -10 -4 0
-6 7 -11 16 -11 13 0 15 7 10 33 -5 25 -2 35 14 45 11 7 20 8 20 3 0 -6 -5
-13 -10 -16 -12 -7 -4 -25 11 -25 6 0 8 4 4 9 -3 5 0 13 6 17 6 3 15 1 19 -5
5 -9 11 -9 22 3 9 8 18 12 22 9 3 -4 6 -1 6 6 0 6 8 11 18 9 13 -2 18 5 20 30
4 44 -12 62 -59 62 -28 0 -39 4 -39 15 0 9 -7 18 -16 22 -9 3 -14 13 -11 24 6
21 -13 25 -31 7 -9 -9 -12 -8 -12 4 0 9 -6 18 -12 21 -8 2 -9 8 -4 13 5 5 11
4 13 -3 3 -7 8 -13 13 -13 12 0 19 36 9 51 -5 8 -2 20 8 31 15 17 15 18 0 18
-10 0 -17 5 -17 11 0 7 -10 9 -25 7 -14 -3 -25 -1 -25 3 0 5 18 9 41 9 28 0
38 -4 33 -12 -4 -7 -3 -8 4 -4 17 10 15 26 -4 26 -8 0 -12 5 -9 10 3 6 -1 10
-10 10 -9 0 -13 -5 -9 -11z m-146 -79 c0 -5 -4 -10 -10 -10 -5 0 -10 5 -10 10
0 6 5 10 10 10 6 0 10 -4 10 -10z m40 -409 c0 -5 -7 -12 -16 -15 -14 -5 -15
-4 -4 9 14 17 20 19 20 6z"/>
<path d="M3972 4731 c2 -8 -4 -23 -14 -33 -10 -10 -18 -30 -18 -44 0 -21 4
-24 20 -19 23 7 28 -10 5 -19 -8 -3 -15 -13 -15 -22 0 -10 -5 -14 -15 -10 -11
4 -15 0 -13 -12 2 -11 -3 -17 -14 -16 -19 2 -48 -51 -48 -85 0 -12 -6 -24 -13
-27 -8 -3 -13 -15 -12 -27 1 -12 -5 -35 -13 -52 -9 -16 -15 -34 -14 -39 3 -9
-48 -56 -60 -56 -5 0 -8 -7 -8 -15 0 -8 -11 -17 -25 -21 -14 -3 -25 -11 -25
-16 0 -6 -8 -8 -18 -6 -24 7 -56 -17 -46 -33 5 -9 2 -10 -9 -6 -9 3 -23 -1
-32 -9 -8 -8 -19 -13 -24 -10 -5 4 -11 0 -13 -8 -3 -12 -5 -12 -16 0 -11 12
-10 14 3 14 18 0 20 11 4 27 -13 13 -39 6 -39 -10 0 -6 -7 -19 -17 -29 -14
-16 -14 -18 -1 -18 9 0 15 -8 14 -17 0 -10 4 -17 11 -16 13 3 7 -22 -10 -44
-5 -7 -7 -13 -3 -13 3 0 -12 -19 -34 -42 -22 -24 -40 -47 -40 -51 0 -12 -26
-37 -38 -37 -6 0 -12 -3 -14 -8 -6 -14 -110 -62 -120 -55 -7 3 -8 1 -4 -5 8
-14 -274 -9 -283 5 -6 10 -39 25 -56 27 -11 1 -63 35 -83 53 -7 7 -24 16 -37
19 -32 8 -75 65 -115 152 -18 39 -36 72 -40 72 -4 0 -23 30 -41 68 -18 37 -37
68 -41 70 -4 2 -5 9 -2 17 8 20 -17 30 -31 12 -9 -12 -14 -14 -23 -5 -9 9 -12
7 -12 -9 0 -12 6 -24 13 -26 6 -3 1 -6 -11 -6 -15 -1 -35 12 -55 36 -18 20
-39 44 -47 52 -8 9 -26 32 -40 51 -13 19 -27 37 -30 40 -3 3 -21 30 -40 60
-18 30 -44 67 -58 82 -15 17 -26 43 -29 72 -6 54 -4 54 -148 -1 -49 -19 -124
-46 -165 -60 -41 -14 -88 -30 -103 -36 -16 -5 -56 -42 -89 -81 -140 -166 -245
-223 -528 -286 -137 -30 -342 -99 -510 -170 -41 -18 -97 -40 -125 -50 -114
-40 -342 -159 -373 -194 -75 -86 -100 -296 -54 -459 18 -64 20 -86 12 -115
-24 -87 -12 -139 48 -204 29 -31 28 -37 -22 -153 -28 -66 -34 -142 -14 -206 9
-32 8 -48 -5 -90 -22 -67 -21 -114 4 -168 18 -41 19 -53 10 -134 -6 -49 -12
-90 -13 -91 -2 -1 -20 -14 -41 -29 -72 -54 -67 27 -67 -1122 l0 -1035 3000 0
3000 0 -2 847 -3 848 -30 5 c-23 4 -29 10 -27 25 2 19 2 19 -12 2 -19 -25 -94
-13 -107 17 -21 49 -59 229 -59 278 0 31 -9 71 -20 96 -27 59 -73 239 -73 282
0 19 3 58 8 86 7 48 6 53 -25 88 -32 36 -33 39 -27 103 5 48 3 73 -8 92 -8 14
-29 82 -46 151 -18 69 -48 162 -67 208 l-35 83 34 35 c32 33 34 40 34 100 0
57 -3 68 -23 85 -23 18 -24 22 -23 176 1 146 0 161 -21 203 -16 31 -35 50 -64
65 -23 11 -47 25 -55 31 -53 44 -946 333 -1029 334 -36 1 -92 28 -208 104 -75
50 -101 72 -98 84 10 35 16 79 21 140 3 34 6 66 6 70 4 24 -2 52 -10 47 -5 -3
-21 9 -36 27 -15 18 -25 27 -23 19z m48 -67 c0 -8 -4 -14 -10 -14 -5 0 -10 2
-10 4 0 2 -3 12 -6 20 -5 12 -2 15 10 10 9 -3 16 -12 16 -20z m-1772 -206 c11
-24 31 -68 45 -99 33 -75 83 -151 147 -224 51 -57 82 -84 65 -54 -5 8 -4 11 1
6 5 -5 9 -16 9 -25 0 -12 7 -16 27 -14 19 2 30 -4 38 -19 13 -24 4 -41 -10
-19 -6 8 -10 10 -10 4 0 -17 47 -57 59 -49 6 3 11 11 11 17 0 7 -5 7 -14 -1
-10 -9 -15 -8 -19 3 -10 25 19 25 47 0 29 -28 33 -39 11 -30 -8 3 -22 3 -31
-1 -12 -4 -8 -13 22 -44 20 -21 42 -35 47 -32 6 3 7 2 4 -4 -3 -5 13 -28 36
-51 41 -41 43 -41 55 -21 9 15 10 19 2 14 -7 -4 -16 -1 -21 6 -12 19 -11 29 2
29 5 0 8 -4 5 -9 -3 -5 5 -12 19 -15 14 -4 25 -11 25 -17 0 -6 9 -8 20 -4 11
3 20 2 20 -4 0 -5 11 -8 25 -5 14 2 25 0 25 -6 0 -13 54 -40 79 -40 11 0 24
-6 28 -13 10 -18 84 -36 117 -30 15 3 26 1 26 -6 0 -11 -13 -13 -87 -15 -60
-2 -62 -13 -4 -21 64 -9 73 -20 16 -20 -49 -1 -58 -5 -50 -27 4 -9 25 -18 53
-22 41 -5 50 -3 81 22 20 16 47 35 61 42 14 7 68 50 120 95 52 45 117 96 143
114 26 18 75 60 109 94 33 33 58 52 55 41 -3 -10 -15 -56 -27 -102 -21 -84
-43 -146 -84 -237 -64 -140 -86 -197 -105 -270 -31 -123 -51 -250 -51 -334 -1
-54 -3 -71 -10 -59 -16 26 -48 137 -66 224 -19 92 -67 190 -125 254 -22 25
-38 40 -35 34 7 -14 -24 -29 -33 -17 -6 8 -64 32 -87 37 -7 1 -18 7 -25 12
-31 24 -38 22 -73 -31 -20 -30 -34 -55 -32 -55 9 0 56 51 56 60 0 5 10 15 23
21 20 11 21 11 9 -4 -11 -13 -10 -15 6 -10 11 2 23 -1 28 -8 5 -9 2 -11 -9 -6
-12 5 -19 -1 -23 -18 -3 -14 -10 -25 -15 -25 -5 0 -8 -5 -6 -12 1 -7 -4 -13
-10 -14 -23 -3 -24 -4 -18 -14 5 -8 11 -8 20 0 9 8 15 8 20 0 9 -15 -3 -30
-19 -24 -20 8 -30 -14 -14 -33 9 -12 9 -15 1 -9 -7 4 -13 3 -13 -2 0 -14 12
-22 24 -15 6 4 20 7 30 8 22 0 31 45 12 58 -8 5 -7 10 4 16 21 14 29 5 26 -34
-2 -19 1 -36 5 -37 5 0 27 -2 49 -4 22 -1 45 -3 52 -3 6 -1 8 -4 4 -8 -4 -5
-29 -8 -54 -8 -43 0 -47 -2 -44 -23 1 -18 -2 -23 -15 -20 -10 2 -18 10 -19 18
-2 28 -4 31 -16 23 -7 -4 -22 -8 -32 -8 -21 0 -31 -45 -13 -57 7 -4 7 -11 -1
-21 -7 -7 -9 -17 -5 -21 4 -4 8 -15 8 -24 0 -13 7 -16 29 -14 19 2 27 -1 24
-10 -3 -7 -15 -13 -28 -13 -18 0 -23 -6 -24 -27 -2 -29 -1 -30 39 -30 14 0 29
0 34 1 11 1 9 41 -3 60 -11 17 7 33 28 25 11 -4 13 -10 8 -18 -10 -12 -10 -45
0 -61 3 -6 4 -26 3 -45 -1 -19 2 -38 8 -41 17 -12 -4 -31 -28 -25 -13 3 -26 2
-30 -4 -3 -5 -12 -7 -21 -3 -12 4 -13 1 -5 -20 5 -14 8 -27 6 -29 -2 -2 8 -4
23 -3 20 0 27 5 27 19 0 11 6 21 14 24 10 3 12 0 8 -12 -5 -13 1 -18 23 -23
17 -3 30 -10 30 -15 0 -6 -7 -7 -16 -4 -8 3 -27 -2 -42 -12 -14 -9 -23 -11
-19 -4 10 15 7 15 -49 1 -70 -18 -54 -35 29 -29 15 1 28 -3 29 -9 0 -6 1 -17
2 -23 2 -27 66 -65 87 -52 5 3 9 -2 9 -11 0 -8 -7 -18 -15 -21 -8 -4 -13 -10
-10 -14 9 -14 -6 -40 -19 -33 -6 4 -5 -1 3 -10 11 -14 17 -15 28 -5 13 10 15
9 11 -7 -2 -12 -11 -19 -22 -18 -10 0 -15 -4 -12 -12 2 -7 -2 -21 -10 -32 -14
-17 -14 -17 -5 4 13 26 -4 43 -22 23 -9 -10 -9 -11 1 -6 7 4 12 2 12 -6 0 -8
-6 -20 -12 -27 -11 -11 -10 -12 1 -6 11 6 13 4 7 -10 -5 -15 -4 -16 8 -6 18
15 34 -5 17 -22 -6 -6 -11 -7 -11 -3 0 5 -7 3 -15 -4 -8 -7 -12 -17 -8 -23 10
-17 9 -64 -2 -73 -5 -5 -22 -9 -37 -9 -15 1 -24 -3 -22 -7 3 -4 11 -8 19 -8 9
0 12 -8 9 -26 -4 -21 -2 -25 11 -20 13 5 14 2 4 -15 -6 -11 -17 -18 -24 -15
-14 5 -15 -1 -17 -62 0 -19 -4 -28 -8 -22 -5 8 -9 5 -12 -8 -5 -18 -39 -24
-54 -9 -4 4 -13 2 -21 -4 -10 -9 -13 -7 -13 10 0 18 5 20 33 17 32 -4 33 -4
32 32 0 35 -2 37 -33 37 -21 -1 -32 4 -32 13 0 8 6 12 15 8 8 -3 15 0 15 6 0
7 4 7 14 -1 11 -9 15 -5 18 24 2 19 0 36 -4 36 -4 1 -12 2 -17 3 -6 0 -16 7
-23 15 -10 10 -10 12 0 7 6 -4 12 -2 12 4 0 6 4 9 9 5 6 -3 9 3 9 12 0 10 3
26 7 35 5 12 2 20 -9 24 -9 3 -16 10 -16 16 0 5 3 7 8 5 16 -10 2 335 -15 383
-8 22 -16 71 -15 98 0 20 -4 23 -24 19 -19 -3 -22 -2 -13 9 6 8 15 11 20 8 5
-3 6 2 3 10 -3 9 -11 13 -17 9 -6 -3 -7 -1 -3 6 4 7 5 19 2 28 -6 14 -10 13
-33 -8 -20 -18 -25 -20 -20 -6 4 9 2 17 -4 17 -5 0 -7 11 -5 25 3 15 0 24 -7
22 -13 -2 -18 41 -6 49 5 3 9 14 9 25 0 10 4 19 10 19 5 0 9 3 9 8 -4 21 3 32
18 32 9 0 13 3 10 7 -9 8 23 44 34 38 4 -3 10 -2 13 3 3 5 -9 8 -25 8 -24 -1
-34 -9 -55 -46 -15 -25 -34 -67 -44 -95 -10 -27 -33 -86 -50 -130 -17 -44 -39
-102 -48 -130 l-16 -49 -9 34 c-73 280 -140 466 -280 780 -138 308 -196 548
-171 703 4 20 8 37 9 37 1 0 11 -19 23 -42z m1679 -35 c-4 -3 -7 0 -7 7 0 7 3
10 7 7 3 -4 3 -10 0 -14z m-9 -51 c-11 -2 -18 -13 -18 -27 0 -23 -16 -42 -26
-32 -7 7 16 61 29 69 6 4 16 4 22 0 6 -4 3 -8 -7 -10z m-253 -182 c3 -5 1 -10
-4 -10 -6 0 -11 5 -11 10 0 6 2 10 4 10 3 0 8 -4 11 -10z m-948 -267 c-4 -3
-10 -3 -14 0 -3 4 0 7 7 7 7 0 10 -3 7 -7z m38 -13 c3 -5 -1 -10 -10 -10 -9 0
-13 5 -10 10 3 6 8 10 10 10 2 0 7 -4 10 -10z m42 -26 c-3 -3 -12 -4 -19 -1
-8 3 -5 6 6 6 11 1 17 -2 13 -5z m406 -211 c-7 -3 -13 -12 -13 -21 -1 -16 -1
-16 -11 0 -5 10 -17 15 -27 12 -11 -4 -13 -3 -5 3 6 4 24 9 40 9 15 1 22 -1
16 -3z m-43 -33 c0 -5 -2 -10 -4 -10 -3 0 -8 5 -11 10 -3 6 -1 10 4 10 6 0 11
-4 11 -10z m38 -184 c19 -33 19 -33 1 -29 -22 6 -51 42 -43 55 10 15 22 8 42
-26z m-168 4 c0 -5 -7 -10 -15 -10 -8 0 -15 5 -15 10 0 6 7 10 15 10 8 0 15
-4 15 -10z m55 -40 c3 -5 -1 -10 -9 -10 -8 0 -18 5 -21 10 -3 6 1 10 9 10 8 0
18 -4 21 -10z m160 -41 c2 -9 -3 -16 -9 -16 -7 0 -13 9 -13 19 -2 23 19 19 22
-3z m-105 1 c0 -5 -7 -10 -15 -10 -8 0 -15 5 -15 10 0 6 7 10 15 10 8 0 15 -4
15 -10z m50 -40 c0 -5 -4 -10 -9 -10 -6 0 -13 5 -16 10 -3 6 1 10 9 10 9 0 16
-4 16 -10z m-40 -34 c0 -11 -19 -15 -25 -6 -3 5 1 10 9 10 9 0 16 -2 16 -4z
m-93 -43 c3 -7 -1 -13 -7 -13 -10 0 -10 -3 -1 -14 9 -10 9 -16 1 -21 -14 -9
-25 1 -25 23 0 13 -7 16 -27 14 -25 -2 -36 7 -24 19 10 10 80 3 83 -8z m86 3
c3 -8 -8 -11 -32 -10 -43 2 -43 2 -38 12 8 12 66 10 70 -2z m47 -6 c0 -5 -2
-10 -4 -10 -3 0 -8 5 -11 10 -3 6 -1 10 4 10 6 0 11 -4 11 -10z m-40 -35 c0
-8 -4 -15 -9 -15 -13 0 -22 16 -14 24 11 11 23 6 23 -9z m-49 -48 c-13 -13
-26 -3 -16 12 3 6 11 8 17 5 6 -4 6 -10 -1 -17z m59 2 c0 -5 -4 -9 -10 -9 -5
0 -10 5 -10 11 0 5 -5 7 -12 3 -7 -4 -8 -3 -4 4 7 12 36 5 36 -9z m90 -7 c0
-5 14 -24 30 -42 41 -46 45 -68 33 -170 -10 -90 -22 -113 -74 -141 -31 -16
-45 5 -53 86 -7 67 -2 90 15 80 11 -7 11 -3 3 19 -3 9 -10 14 -14 11 -5 -3 -7
5 -6 17 8 69 19 134 23 141 6 10 43 9 43 -1z m-96 -33 c-3 -5 -10 -7 -15 -3
-5 3 -7 10 -3 15 3 5 10 7 15 3 5 -3 7 -10 3 -15z m-11 -34 c-2 -6 -16 -10
-31 -9 -33 2 -34 2 -29 12 8 11 65 8 60 -3z m797 -40 c7 -8 18 -15 24 -15 6 0
22 -6 36 -13 14 -7 44 -19 68 -26 23 -8 42 -18 42 -23 0 -4 7 -8 15 -8 8 0 24
-9 34 -19 25 -25 61 -44 69 -37 3 3 16 -1 30 -10 15 -10 21 -11 17 -3 -14 21
16 -1 96 -73 43 -38 79 -77 82 -88 3 -10 -2 -31 -9 -46 -8 -15 -12 -34 -9 -41
4 -11 -1 -13 -18 -7 -12 3 -19 3 -14 -1 4 -5 15 -9 25 -10 24 -1 150 -102 157
-126 4 -11 4 -32 0 -48 -5 -24 -2 -30 15 -36 25 -8 60 -61 60 -92 0 -12 -13
-38 -30 -56 l-30 -34 75 -58 c41 -31 75 -59 75 -62 0 -7 -67 37 -128 85 -39
31 -62 40 -62 24 0 -5 -14 -7 -31 -4 -30 4 -30 4 -24 -31 6 -30 3 -40 -18 -61
-28 -28 -90 -48 -126 -40 l-26 6 25 -21 c14 -12 45 -33 70 -48 25 -14 56 -35
70 -46 l25 -19 -25 7 c-35 10 -113 58 -193 118 -67 51 -68 51 -145 53 -42 1
-95 8 -117 16 -55 19 -108 -1 -125 -46 -6 -17 -16 -39 -21 -48 -5 -10 -9 -25
-9 -33 0 -9 -13 -43 -28 -78 -23 -51 -46 -78 -128 -152 -54 -50 -131 -112
-170 -138 -40 -26 -78 -57 -86 -70 -43 -64 -139 -139 -196 -152 -18 -3 -30
-10 -27 -15 3 -5 -11 -14 -30 -20 -27 -9 -44 -9 -70 0 -30 10 -40 9 -58 -4
-56 -39 -70 -54 -62 -66 6 -10 4 -12 -8 -7 -11 4 -20 -1 -27 -13 -6 -11 -17
-20 -24 -20 -8 0 -31 -21 -52 -47 -21 -27 -45 -53 -54 -59 -33 -25 -90 -81
-90 -89 0 -9 -117 -117 -123 -113 -2 2 -11 -3 -21 -11 -14 -12 -16 -12 -11 0
3 8 -4 18 -17 24 -13 6 -27 20 -33 31 -6 12 -17 29 -24 38 -7 9 -11 25 -8 36
3 11 1 18 -4 14 -5 -3 -14 8 -20 23 -6 15 -15 36 -21 46 -5 11 -7 21 -5 23 3
3 -7 17 -22 32 -14 15 -32 37 -38 47 -28 45 46 -149 129 -335 20 -46 27 -65
49 -137 l23 -73 57 0 c32 0 69 4 83 10 71 27 93 175 50 327 -3 13 -2 23 3 23
18 0 36 -116 31 -207 -7 -145 -44 -189 -156 -186 -52 1 -63 -1 -58 -13 3 -8 2
-14 -2 -14 -4 0 -15 -20 -26 -45 -24 -59 -77 -102 -199 -159 -54 -25 -138 -68
-186 -96 -96 -55 -110 -59 -109 -32 0 9 -6 64 -15 122 -8 58 -20 166 -26 240
-6 74 -18 224 -27 333 -24 286 -9 428 54 498 20 22 292 175 292 164 0 -1 -7
-16 -16 -34 -21 -42 -20 -187 1 -256 15 -49 15 -49 10 -10 -2 22 -7 56 -11 76
-5 28 -3 37 10 42 10 4 16 1 16 -7 0 -8 7 -16 14 -19 11 -4 13 -1 9 11 -4 12
-3 14 5 7 5 -5 12 -19 15 -30 3 -13 5 -7 7 15 1 19 4 29 7 22 2 -6 9 -10 14
-6 5 3 10 -3 10 -13 1 -10 4 -3 8 15 3 18 10 32 16 32 5 -1 12 8 17 19 4 12
15 21 23 21 9 0 14 4 10 9 -6 11 13 26 35 27 8 1 25 2 38 3 12 0 21 4 21 9 -4
22 3 29 26 25 28 -6 60 20 51 42 -3 9 0 15 9 15 8 0 15 7 15 15 0 12 5 13 27
4 32 -12 66 -3 43 11 -11 7 -8 10 13 15 18 5 29 16 34 33 9 36 24 50 47 44 13
-4 17 -1 14 9 -3 8 4 24 15 37 11 12 15 22 9 22 -7 0 -12 5 -12 10 0 6 7 10
16 10 11 0 14 6 9 22 -6 16 -4 20 8 15 16 -6 43 34 34 50 -3 5 16 39 43 76 30
40 47 73 44 82 -4 8 -1 15 5 15 6 0 11 -10 11 -22 l0 -22 23 23 c15 16 18 25
10 28 -7 3 -13 16 -13 29 0 14 -4 22 -10 19 -16 -10 -12 41 5 55 8 7 12 16 9
22 -3 5 0 16 7 24 10 13 10 17 0 23 -9 6 -6 10 11 14 24 6 58 57 38 57 -5 0 2
12 15 26 23 25 34 65 18 63 -20 -3 -27 2 -14 10 18 11 7 43 -13 35 -8 -3 -16
-15 -19 -26 -3 -11 -10 -17 -16 -14 -6 4 -6 17 1 39 5 17 11 52 12 77 3 50 24
90 62 114 13 9 26 17 29 17 2 0 19 5 37 10 18 6 67 9 108 8 41 -1 86 -2 100
-3 41 -1 132 14 184 31 26 8 66 15 88 15 22 -1 51 4 66 9 18 7 28 6 34 -3 6
-11 8 -11 8 0 0 10 5 10 20 2 16 -9 24 -7 36 5 18 17 30 19 39 5 4 -6 10 -8
15 -5 5 3 15 -4 24 -16 8 -12 25 -23 38 -23 13 -1 43 -11 68 -23 104 -49 119
-37 22 18 -101 59 -210 98 -232 84 -5 -3 -12 0 -16 6 -5 8 -8 8 -14 -1 -4 -6
-51 -15 -104 -20 -54 -5 -116 -15 -139 -21 -38 -11 -307 -22 -307 -13 0 7 84
44 101 44 10 0 20 4 23 8 3 5 30 15 60 22 31 7 64 21 74 30 10 10 36 23 58 30
21 7 59 21 84 32 89 41 107 46 146 47 17 1 37 -6 44 -14z m-793 -2 c-4 -3 -10
-3 -14 0 -3 4 0 7 7 7 7 0 10 -3 7 -7z m-257 -133 c0 -8 -15 -37 -34 -63 l-35
-49 -7 36 c-13 71 -10 166 6 176 11 7 21 -2 42 -38 15 -26 28 -54 28 -62z
m235 100 c3 -6 -1 -13 -10 -16 -19 -8 -30 0 -20 15 8 14 22 14 30 1z m19 -126
c18 -18 18 -17 10 -38 -3 -9 -11 -13 -16 -10 -6 4 -8 -2 -3 -15 3 -11 2 -21
-3 -21 -5 0 -12 9 -15 20 -3 12 -14 20 -25 20 -16 0 -20 6 -20 30 1 26 5 30
29 30 15 0 35 -7 43 -16z m-234 -43 c0 -6 -4 -13 -10 -16 -5 -3 -10 1 -10 9 0
9 5 16 10 16 6 0 10 -4 10 -9z m427 -8 c-4 -3 -10 -3 -14 0 -3 4 0 7 7 7 7 0
10 -3 7 -7z m-437 -38 c0 -8 -4 -15 -10 -15 -5 0 -10 7 -10 15 0 8 5 15 10 15
6 0 10 -7 10 -15z m27 -27 c-3 -8 -6 -5 -6 6 -1 11 2 17 5 13 3 -3 4 -12 1
-19z m-11 -25 c15 -24 15 -26 1 -14 -19 15 -18 16 -23 -19 -4 -33 3 -53 16
-45 8 5 8 11 1 19 -12 14 -4 29 10 20 13 -7 11 -62 -1 -69 -6 -4 -8 -15 -5
-26 7 -20 3 -22 -33 -13 -19 6 -22 11 -17 35 5 22 3 29 -9 29 -9 0 -16 5 -16
10 0 6 8 10 18 8 14 -2 17 5 18 42 2 53 2 50 13 50 5 0 17 -12 27 -27z m234
-107 c0 -3 -4 -8 -10 -11 -5 -3 -10 -1 -10 4 0 6 5 11 10 11 6 0 10 -2 10 -4z
m-265 -58 c4 -4 14 -4 22 -1 11 4 14 0 11 -13 -2 -11 -12 -19 -22 -19 -11 0
-21 -7 -23 -15 -4 -11 -2 -12 5 -2 6 9 11 6 20 -13 9 -20 9 -25 -2 -25 -7 0
-16 3 -20 8 -4 4 -13 7 -19 7 -7 0 -11 13 -9 33 2 18 -1 32 -7 32 -6 0 -11 4
-11 8 0 10 46 10 55 0z m252 -5 c-4 -3 -7 0 -7 7 0 7 3 10 7 7 3 -4 3 -10 0
-14z m70 -100 c-3 -10 -5 -4 -5 12 0 17 2 24 5 18 2 -7 2 -21 0 -30z m-302 -3
c6 0 2 -5 -8 -11 -9 -5 -22 -7 -28 -3 -8 5 -8 1 0 -14 15 -28 14 -31 -9 -25
-11 3 -20 10 -20 15 0 5 5 6 10 3 7 -4 9 2 4 19 -6 23 -4 26 17 22 13 -3 29
-5 34 -6z m175 -46 c0 -8 -4 -12 -10 -9 -5 3 -10 10 -10 16 0 5 5 9 10 9 6 0
10 -7 10 -16z m-150 -104 c0 -5 -4 -10 -10 -10 -5 0 -10 5 -10 10 0 6 5 10 10
10 6 0 10 -4 10 -10z m0 -96 c0 -8 -4 -12 -10 -9 -5 3 -10 10 -10 16 0 5 5 9
10 9 6 0 10 -7 10 -16z m70 2 c0 -3 -5 -8 -12 -12 -7 -4 -8 -3 -4 4 7 12 16
16 16 8z m-67 -40 c3 -8 -1 -17 -9 -20 -9 -4 -14 1 -14 14 0 23 15 27 23 6z
m37 -11 c0 -8 -4 -15 -10 -15 -5 0 -10 7 -10 15 0 8 5 15 10 15 6 0 10 -7 10
-15z m-35 -45 c3 -5 1 -10 -4 -10 -6 0 -11 5 -11 10 0 6 2 10 4 10 3 0 8 -4
11 -10z m1817 -67 c21 -19 24 -34 6 -30 -7 1 -12 -4 -10 -11 1 -7 -16 -21 -39
-31 -47 -21 -105 -14 -126 15 -11 15 -10 21 9 41 41 43 121 52 160 16z m65
-10 c-4 -3 -7 0 -7 7 0 7 3 10 7 7 3 -4 3 -10 0 -14z m-20 -50 c-4 -3 -7 0 -7
7 0 7 3 10 7 7 3 -4 3 -10 0 -14z m71 -37 c15 -8 36 -24 47 -36 20 -23 20 -23
0 -12 -29 16 -90 62 -81 62 4 0 19 -6 34 -14z m-283 -6 c17 -7 15 -9 -12 -9
-18 -1 -33 4 -33 9 0 12 17 12 45 0z m405 -55 c11 -13 10 -14 -4 -9 -9 3 -16
10 -16 15 0 13 6 11 20 -6z m67 -30 c0 -8 -6 -15 -13 -15 -8 0 -11 6 -8 15 4
8 9 15 13 15 4 0 8 -7 8 -15z m-87 -15 c0 -5 -5 -10 -11 -10 -5 0 -7 5 -4 10
3 6 8 10 11 10 2 0 4 -4 4 -10z m295 -106 c129 -91 139 -100 60 -53 -78 46
-214 136 -230 151 -25 25 89 -41 170 -98z m-244 -145 c85 -57 213 -117 281
-130 70 -14 88 -31 26 -25 -51 5 -159 44 -225 82 -79 45 -174 115 -168 124 2
4 -2 13 -10 20 -8 7 -15 17 -15 22 0 5 12 -5 26 -22 15 -17 53 -49 85 -71z
m566 -24 c0 -8 -4 -15 -9 -15 -10 0 -11 14 -1 23 9 10 10 9 10 -8z m-29 -20
c-3 -3 -9 2 -12 12 -6 14 -5 15 5 6 7 -7 10 -15 7 -18z m-788 -320 c11 -40 10
-50 -8 -92 -11 -27 -23 -57 -26 -68 -3 -11 -3 5 -1 35 3 30 5 83 5 118 0 71
11 74 30 7z m19 -341 c75 -84 74 -82 35 -145 -18 -31 -40 -80 -47 -110 -11
-42 -19 -55 -36 -57 -11 -2 -21 0 -22 5 -15 191 -16 261 -6 353 10 92 12 99
17 59 5 -37 15 -57 59 -105z m-1969 108 c0 -4 -10 -13 -22 -21 -23 -14 -23
-14 -4 8 20 22 26 25 26 13z"/>
<path d="M2797 3776 c-6 -14 44 -65 123 -128 75 -58 100 -65 43 -10 -29 27
-53 55 -53 62 0 10 3 10 15 0 8 -7 15 -8 15 -3 0 13 -35 44 -52 47 -7 1 -19 5
-26 10 -7 4 -16 5 -20 1 -3 -3 0 -10 8 -15 8 -6 11 -10 5 -10 -5 0 -21 9 -35
20 l-25 20 23 0 c13 0 20 4 17 10 -9 15 -32 12 -38 -4z m93 -50 c0 -3 -5 -8
-12 -12 -7 -4 -8 -3 -4 4 7 12 16 16 16 8z"/>
<path d="M3013 3693 c4 -3 10 -3 14 0 3 4 0 7 -7 7 -7 0 -10 -3 -7 -7z"/>
<path d="M3118 3533 c7 -3 16 -2 19 1 4 3 -2 6 -13 5 -11 0 -14 -3 -6 -6z"/>
<path d="M2886 3441 c-4 -7 -5 -15 -2 -18 9 -9 19 4 14 18 -4 11 -6 11 -12 0z"/>
<path d="M2887 3355 c2 -8 11 -11 19 -8 16 6 11 16 -11 19 -8 1 -11 -4 -8 -11z"/>
<path d="M2903 3314 c0 -16 13 -19 21 -5 3 5 0 11 -7 14 -8 3 -14 -1 -14 -9z"/>
<path d="M2845 3279 c-10 -15 3 -25 16 -12 7 7 7 13 1 17 -6 3 -14 1 -17 -5z"/>
<path d="M2910 3280 c0 -7 3 -10 7 -7 3 4 3 10 0 14 -4 3 -7 0 -7 -7z"/>
<path d="M2910 3234 c0 -8 5 -12 10 -9 6 4 8 11 5 16 -9 14 -15 11 -15 -7z"/>
<path d="M2851 3201 c-10 -6 -9 -10 3 -14 8 -3 18 -2 21 3 8 13 -9 20 -24 11z"/>
<path d="M2920 3200 c0 -7 3 -10 7 -7 3 4 3 10 0 14 -4 3 -7 0 -7 -7z"/>
<path d="M2965 3080 c-2 -3 -1 -17 2 -31 4 -22 10 -26 34 -25 27 1 67 26 42
26 -6 0 -9 9 -6 19 4 16 0 19 -32 18 -20 -1 -38 -4 -40 -7z"/>
<path d="M3020 2560 c0 -7 3 -10 7 -7 3 4 3 10 0 14 -4 3 -7 0 -7 -7z"/>
<path d="M3046 2553 c-6 -14 -5 -15 5 -6 7 7 10 15 7 18 -3 3 -9 -2 -12 -12z"/>
<path d="M3025 2520 l-20 -9 20 0 c11 0 27 4 35 9 13 9 13 10 0 9 -8 0 -24 -4
-35 -9z"/>
<path d="M3020 2429 c0 -5 5 -7 10 -4 6 3 10 8 10 11 0 2 -4 4 -10 4 -5 0 -10
-5 -10 -11z"/>
<path d="M4310 2862 c0 -11 7 -25 15 -32 12 -10 15 -9 15 8 0 11 -7 25 -15 32
-12 10 -15 9 -15 -8z"/>
<path d="M4290 2741 c19 -16 38 -27 42 -25 5 3 8 -7 8 -23 1 -25 2 -26 11 -10
10 18 11 18 25 0 10 -14 13 -15 14 -3 0 14 -18 28 -92 73 -42 26 -47 19 -8
-12z"/>
<path d="M3475 2709 c7 -10 71 -28 129 -36 40 -6 86 -7 196 -5 102 2 110 0
110 -28 0 -19 3 -21 9 -11 13 21 39 22 50 3 9 -16 10 -16 17 1 6 17 8 17 25 1
11 -10 19 -12 19 -6 0 7 11 11 25 10 19 -2 28 -10 34 -33 7 -28 8 -29 15 -7 9
26 23 29 29 5 4 -17 5 -17 6 0 1 21 12 21 75 2 58 -18 111 -49 131 -78 9 -12
15 -16 15 -8 0 11 3 11 14 1 10 -8 21 -8 32 -2 14 8 5 16 -49 46 -36 20 -92
47 -124 60 -32 13 -85 37 -118 52 -55 26 -69 29 -170 28 -60 -1 -156 -4 -212
-9 -71 -6 -115 -4 -150 4 -63 17 -114 21 -108 10z m570 -39 c3 -5 4 -10 1 -10
-3 0 -8 5 -11 10 -3 6 -4 10 -1 10 3 0 8 -4 11 -10z m-38 -7 c-4 -3 -10 -3
-14 0 -3 4 0 7 7 7 7 0 10 -3 7 -7z"/>
<path d="M3305 2653 c-48 -26 -73 -66 -34 -56 11 3 18 11 15 18 -3 8 2 11 14
8 10 -3 21 0 24 6 4 6 29 11 57 11 51 0 66 13 27 24 -38 10 -71 6 -103 -11z"/>
<path d="M3530 2495 c13 -14 42 -30 64 -36 23 -5 50 -14 61 -19 11 -4 65 -11
119 -14 58 -3 103 -10 107 -17 4 -6 12 -8 18 -5 6 4 11 1 11 -6 0 -9 3 -9 10
2 8 13 10 13 10 -1 0 -9 7 -20 16 -23 13 -5 14 -1 9 25 -5 20 -3 29 3 25 5 -3
12 -19 15 -34 5 -25 12 -30 46 -36 29 -4 41 -11 42 -24 0 -12 3 -11 10 6 10
27 4 42 -17 42 -8 0 -14 4 -14 9 0 5 -9 7 -20 4 -13 -3 -22 1 -26 11 -8 22 1
30 23 21 10 -5 22 -7 27 -6 4 1 20 -6 33 -14 18 -12 24 -23 20 -41 -2 -13 0
-24 4 -24 5 0 9 10 9 23 0 16 3 18 9 8 5 -8 10 -9 12 -3 3 7 18 5 44 -5 22 -8
56 -17 75 -19 19 -3 49 -16 67 -30 18 -14 41 -27 51 -29 9 -2 26 -6 37 -10 16
-5 16 -3 -5 14 -14 12 -35 30 -47 40 -12 10 -62 27 -111 39 -49 11 -119 35
-156 52 -54 26 -74 31 -109 26 -64 -9 -308 22 -389 50 -88 30 -87 30 -58 -1z"/>
<path d="M4510 2462 c0 -5 7 -15 15 -22 8 -7 15 -8 15 -2 0 5 -7 15 -15 22 -8
7 -15 8 -15 2z"/>
<path d="M3184 2286 c-6 -14 -8 -30 -3 -37 5 -9 10 -5 14 14 10 37 2 51 -11
23z"/>
<path d="M3090 2130 c0 -7 3 -10 7 -7 3 4 3 10 0 14 -4 3 -7 0 -7 -7z"/>
<path d="M2400 1490 c0 -7 3 -10 7 -7 3 4 3 10 0 14 -4 3 -7 0 -7 -7z"/>
<path d="M2170 558 c0 -9 5 -20 10 -23 13 -8 13 5 0 25 -8 13 -10 13 -10 -2z"/>
<path d="M2886 2662 c-2 -4 -1 -14 3 -21 6 -10 10 -9 14 3 6 16 -8 32 -17 18z"/>
<path d="M4705 2040 c-16 -7 -17 -9 -3 -9 9 -1 20 4 23 9 7 11 7 11 -20 0z"/>
<path d="M2420 4695 c0 -8 5 -15 10 -15 6 0 10 7 10 15 0 8 -4 15 -10 15 -5 0
-10 -7 -10 -15z"/>
<path d="M3760 4658 c0 -4 5 -19 11 -35 6 -15 11 -55 11 -88 -1 -57 0 -59 13
-35 16 27 19 72 8 84 -5 4 -8 11 -8 14 -1 10 -34 68 -35 60z"/>
<path d="M2621 4631 c-13 -23 -15 -71 -3 -71 5 0 13 -12 18 -27 l10 -28 1 34
c1 18 7 39 13 45 8 8 10 7 5 -5 -7 -19 10 -35 20 -19 3 5 22 -5 42 -25 20 -19
40 -32 46 -28 5 3 7 1 3 -5 -3 -6 -2 -13 3 -16 5 -3 12 1 15 10 5 13 12 11 49
-11 24 -14 47 -25 50 -25 13 0 7 18 -10 35 -16 16 -14 17 28 11 24 -4 39 -4
33 1 -6 4 -10 16 -8 27 2 11 -5 20 -18 24 -11 3 -15 8 -9 11 6 4 -22 8 -62 9
-72 2 -164 30 -199 59 -14 13 -18 12 -27 -6z m296 -108 c-4 -3 -7 0 -7 7 0 7
3 10 7 7 3 -4 3 -10 0 -14z"/>
<path d="M2980 4530 c0 -5 9 -14 20 -20 22 -12 27 -1 8 18 -14 14 -28 16 -28
2z"/>
<path d="M3046 4499 c3 -5 11 -9 19 -9 8 0 16 4 19 9 3 5 -5 9 -19 9 -14 0
-22 -4 -19 -9z"/>
<path d="M3173 4493 c4 -3 10 -3 14 0 3 4 0 7 -7 7 -7 0 -10 -3 -7 -7z"/>
<path d="M3135 4480 c3 -5 10 -10 16 -10 5 0 9 5 9 10 0 6 -7 10 -16 10 -8 0
-12 -4 -9 -10z"/>
<path d="M3245 4471 c-21 -5 -25 -8 -14 -13 20 -8 69 2 69 13 0 10 -10 10 -55
0z"/>
<path d="M2800 4442 c0 -16 32 -52 46 -52 20 0 18 30 -3 46 -20 15 -43 18 -43
6z"/>
<path d="M2880 4400 c-13 -8 -12 -10 3 -10 9 0 17 5 17 10 0 12 -1 12 -20 0z"/>
<path d="M2862 4361 c16 -25 41 -28 36 -3 -2 9 -14 18 -26 20 -21 3 -22 2 -10
-17z"/>
<path d="M2921 4324 c0 -11 3 -14 6 -6 3 7 2 16 -1 19 -3 4 -6 -2 -5 -13z"/>
<path d="M3580 4280 c0 -5 5 -10 10 -10 6 0 10 5 10 10 0 6 -4 10 -10 10 -5 0
-10 -4 -10 -10z"/>
<path d="M3590 4240 c0 -7 3 -10 7 -7 3 4 3 10 0 14 -4 3 -7 0 -7 -7z"/>
<path d="M3643 4233 c4 -3 10 -3 14 0 3 4 0 7 -7 7 -7 0 -10 -3 -7 -7z"/>
<path d="M3090 4190 c8 -5 24 -10 34 -10 26 0 18 6 -19 14 -22 5 -26 4 -15 -4z"/>
<path d="M3179 4176 c14 -6 29 -5 44 2 19 9 16 10 -21 9 -36 -1 -40 -3 -23
-11z"/>
<path d="M3360 4130 c0 -7 3 -10 7 -7 3 4 3 10 0 14 -4 3 -7 0 -7 -7z"/>
<path d="M2763 4043 c4 -3 10 -3 14 0 3 4 0 7 -7 7 -7 0 -10 -3 -7 -7z"/>
</g>
</svg>
